<?xml version="1.0" standalone="no"?>
<!DOCTYPE svg PUBLIC "-//W3C//DTD SVG 20010904//EN"
 "http://www.w3.org/TR/2001/REC-SVG-20010904/DTD/svg10.dtd">
<svg version="1.0" xmlns="http://www.w3.org/2000/svg"
 width="512.000000pt" height="512.000000pt" viewBox="0 0 512.000000 512.000000"
 preserveAspectRatio="xMidYMid meet">
<metadata>
Created by potrace 1.16, written by Peter Selinger 2001-2019
</metadata>
<g transform="translate(0.000000,512.000000) scale(0.100000,-0.100000)"
fill="#000000" stroke="none">
<path d="M1742 4298 c-6 -8 -12 -108 -15 -243 -4 -241 -14 -315 -63 -484 -21
-72 -24 -104 -24 -235 0 -150 0 -153 -25 -174 l-25 -22 0 -255 0 -255 25 -22
25 -22 0 -676 c0 -733 0 -734 54 -805 36 -47 101 -90 166 -109 90 -27 417 -39
890 -32 471 7 693 19 744 40 50 21 111 80 137 134 23 45 24 58 27 307 3 212 6
261 18 268 20 11 20 116 -1 123 -13 5 -15 45 -15 275 0 219 3 269 13 269 8 0
21 8 30 18 15 16 17 45 17 204 0 166 -2 187 -18 201 -10 10 -25 17 -32 17 -11
0 -12 30 -7 153 3 83 2 232 -3 329 -8 161 -11 182 -36 238 -43 95 -132 159
-222 160 l-44 0 4 58 c3 51 1 57 -17 57 -17 0 -20 -8 -23 -54 l-3 -54 -181 6
c-100 4 -279 7 -400 7 l-218 0 0 64 c0 49 -5 69 -21 90 -20 25 -23 26 -140 26
-114 0 -121 -1 -144 -25 -17 -16 -25 -35 -25 -59 0 -45 -17 -81 -44 -94 -11
-6 -77 -16 -145 -22 -67 -6 -129 -14 -137 -17 -16 -6 -19 6 -39 144 -9 61 -15
175 -15 277 0 145 -3 177 -16 190 -19 19 -38 20 -52 4z m618 -508 l0 -70 -44
0 c-31 0 -46 5 -50 16 -9 23 -7 69 4 98 8 22 16 26 50 26 l40 0 0 -70z m890
-134 c185 -15 228 -29 275 -90 57 -74 55 -39 55 -1195 0 -702 -4 -1079 -10
-1103 -13 -45 -52 -93 -93 -115 -36 -18 -260 -32 -536 -33 -147 0 -172 2 -162
14 8 10 11 142 9 489 -3 436 -4 477 -20 494 -17 18 -18 68 -18 734 0 547 -3
720 -13 738 -6 14 -26 33 -44 44 l-32 18 -12 -39 c-9 -33 -17 -41 -42 -46 -16
-3 -155 -6 -308 -6 l-279 0 -32 -29 -33 -29 -3 -489 c-2 -268 0 -502 3 -520
10 -55 32 -70 108 -76 58 -4 69 -2 77 13 19 35 2 49 -63 52 l-62 3 -3 497 c-2
418 0 499 12 511 28 27 615 39 652 13 18 -14 19 -34 22 -565 l3 -551 -264 0
-263 0 -22 -30 c-20 -26 -28 -29 -84 -32 l-63 -3 -7 -45 c-10 -73 2 -151 28
-177 20 -20 33 -23 96 -23 60 0 80 -4 113 -25 35 -21 52 -24 129 -25 79 0 94
3 125 24 32 22 48 25 136 27 l100 2 3 -468 c2 -358 -1 -471 -10 -482 -11 -13
-61 -15 -348 -11 -248 3 -341 7 -358 17 -51 28 -52 39 -52 625 l0 545 -44 50
c-41 46 -45 54 -51 123 -3 40 -5 294 -3 563 3 449 4 493 21 523 20 37 64 67
121 83 107 29 901 32 1246 5z m-1414 -44 c-9 -17 -23 -70 -31 -119 -13 -76
-15 -243 -12 -1233 1 -630 6 -1156 11 -1170 16 -46 -70 47 -96 104 l-23 51 0
1110 c0 1193 -2 1151 51 1221 21 28 102 79 112 70 2 -2 -4 -18 -12 -34z m-199
-849 c-1 -65 -3 -12 -3 117 0 129 2 182 3 118 2 -65 2 -171 0 -235z m2050
-245 c-1 -46 -3 -11 -3 77 0 88 2 125 3 83 2 -42 2 -114 0 -160z m-1260 -230
c18 -17 23 -32 23 -74 0 -57 -14 -80 -56 -90 -37 -10 -87 8 -102 36 -19 37 -9
110 18 132 31 25 88 23 117 -4z m271 -20 c15 -13 16 -72 2 -99 -9 -16 -22 -19
-85 -19 -63 0 -76 3 -85 19 -15 30 -12 82 7 103 15 17 26 18 83 12 36 -3 71
-11 78 -16z m-490 -41 c4 -67 -7 -77 -84 -77 -52 0 -65 3 -74 19 -13 25 -13
52 0 86 10 25 12 26 82 23 l73 -3 3 -48z m-351 -444 c-3 -10 -5 -2 -5 17 0 19
2 27 5 18 2 -10 2 -26 0 -35z m1703 -603 c0 -5 -15 -26 -32 -46 -55 -63 -94
-74 -300 -84 -101 -5 -217 -9 -258 -8 l-75 1 95 8 c52 4 170 12 261 18 186 11
223 22 275 85 32 39 34 40 34 26z"/>
<path d="M2201 3631 c-8 -5 -11 -16 -8 -25 6 -14 27 -16 174 -14 160 3 168 4
168 23 0 19 -7 20 -160 22 -88 2 -166 -1 -174 -6z"/>
<path d="M2885 3561 c-11 -5 -29 -19 -40 -31 -19 -21 -20 -36 -20 -437 l0
-415 33 -29 33 -30 241 3 240 3 24 28 24 28 0 400 c0 426 -2 443 -49 469 -25
13 -460 23 -486 11z m463 -63 c8 -8 12 -49 12 -120 l0 -108 -240 0 -240 0 0
101 c0 55 5 109 10 120 10 18 23 19 228 19 156 0 221 -3 230 -12z m20 -537 c2
-206 0 -248 -13 -267 -15 -24 -16 -24 -227 -24 -183 0 -214 2 -230 17 -17 15
-18 37 -18 270 l0 253 243 -2 242 -3 3 -244z"/>
<path d="M2962 2418 c-7 -7 -12 -41 -12 -84 0 -93 13 -104 117 -104 97 0 113
14 113 104 0 89 -9 96 -119 96 -54 0 -91 -4 -99 -12z m156 -84 l3 -42 -55 -6
c-31 -4 -60 -5 -66 -1 -11 7 -14 78 -3 89 4 4 32 6 63 4 l55 -3 3 -41z"/>
<path d="M3232 2418 c-7 -7 -12 -43 -12 -90 0 -94 5 -98 114 -98 102 0 116 13
116 108 0 40 -5 73 -12 80 -8 8 -46 12 -103 12 -57 0 -95 -4 -103 -12z m164
-72 c3 -19 3 -39 0 -44 -8 -14 -70 -24 -100 -16 -22 5 -26 12 -26 43 0 21 3
41 7 44 3 4 30 7 59 7 53 0 53 0 60 -34z"/>
<path d="M2952 2082 c-8 -6 -12 -23 -10 -43 3 -34 3 -34 53 -34 l50 0 0 40 c0
40 0 40 -40 43 -22 1 -46 -2 -53 -6z"/>
<path d="M3080 2070 c-7 -12 -9 -33 -6 -46 6 -22 12 -24 62 -24 l55 0 -3 43
-3 42 -47 3 c-39 3 -49 0 -58 -18z"/>
<path d="M3224 2066 c-12 -50 -3 -61 54 -64 l53 -3 -3 43 -3 43 -47 3 c-43 3
-48 1 -54 -22z"/>
<path d="M3361 2076 c-7 -8 -11 -27 -9 -43 3 -26 7 -28 49 -31 43 -3 47 -1 53
23 10 39 -9 65 -48 65 -19 0 -39 -6 -45 -14z"/>
<path d="M2151 1973 c-52 -2 -101 -9 -108 -15 -8 -6 -13 -25 -11 -42 l3 -31
125 0 125 0 0 -45 0 -45 -97 -2 -98 -2 0 33 c0 40 -7 48 -31 36 -23 -13 -35
-71 -19 -99 11 -21 17 -21 148 -19 l137 3 3 100 c1 55 -2 106 -6 113 -11 16
-52 20 -171 15z"/>
<path d="M2394 1947 c-3 -8 -3 -56 -2 -108 l3 -94 143 -3 142 -3 0 30 c0 16
-4 33 -10 36 -16 10 -12 62 5 69 18 7 20 57 3 74 -18 18 -277 17 -284 -1z
m225 -71 c7 -8 11 -30 9 -48 l-3 -33 -78 -3 c-50 -2 -84 1 -93 9 -17 14 -18
61 -2 77 18 18 152 16 167 -2z"/>
<path d="M2950 1946 c-6 -8 -10 -25 -8 -38 3 -20 10 -23 51 -26 52 -3 64 8 53
53 -5 21 -12 25 -45 25 -21 0 -44 -6 -51 -14z"/>
<path d="M3080 1946 c-6 -8 -10 -25 -8 -38 3 -20 9 -23 60 -26 49 -3 57 0 63
17 12 37 -11 61 -59 61 -26 0 -48 -6 -56 -14z"/>
<path d="M3233 1954 c-18 -8 -16 -61 2 -71 8 -5 33 -7 55 -5 40 4 41 5 38 41
-3 35 -5 36 -43 38 -22 1 -46 0 -52 -3z"/>
<path d="M3357 1954 c-12 -13 -8 -61 7 -73 9 -8 28 -10 51 -5 34 6 36 8 33 43
-3 34 -5 36 -43 39 -23 2 -44 0 -48 -4z"/>
<path d="M2944 1816 c-3 -8 -4 -27 -2 -43 3 -27 6 -28 53 -28 l50 0 0 40 0 40
-48 3 c-34 2 -49 -1 -53 -12z"/>
<path d="M3081 1816 c-7 -8 -11 -27 -9 -43 3 -27 6 -28 60 -31 48 -3 57 0 62
16 4 11 2 31 -3 46 -9 23 -16 26 -55 26 -26 0 -48 -6 -55 -14z"/>
<path d="M3224 1816 c-3 -8 -4 -27 -2 -43 3 -24 8 -29 43 -34 58 -9 67 -3 63
45 l-3 41 -48 3 c-34 2 -49 -1 -53 -12z"/>
<path d="M3354 1816 c-3 -8 -4 -27 -2 -43 3 -26 7 -28 50 -31 44 -3 46 -2 53
28 4 19 2 36 -5 45 -16 20 -89 20 -96 1z"/>
<path d="M2287 1723 c-4 -3 -7 -24 -7 -45 l0 -39 -92 3 -93 3 -3 38 c-3 33 -6
38 -25 35 -20 -3 -22 -9 -22 -67 l0 -64 140 0 140 1 3 57 c3 65 -17 103 -41
78z"/>
<path d="M2408 1719 c-21 -12 -33 -69 -21 -105 l9 -26 139 -1 140 0 3 59 c3
46 0 61 -14 71 -29 21 -34 16 -34 -32 l0 -46 -92 3 -93 3 -3 35 c-4 43 -12 52
-34 39z"/>
<path d="M2157 1684 c-8 -8 1 -24 14 -24 5 0 9 7 9 15 0 15 -12 20 -23 9z"/>
<path d="M2944 1676 c-3 -8 -4 -27 -2 -43 3 -27 6 -28 53 -28 l50 0 0 40 0 40
-48 3 c-34 2 -49 -1 -53 -12z"/>
<path d="M3077 1683 c-4 -3 -7 -24 -7 -45 l0 -38 59 0 c33 0 63 5 66 11 4 6 4
26 1 45 -7 34 -7 34 -60 34 -29 0 -56 -3 -59 -7z"/>
<path d="M3227 1684 c-4 -4 -7 -24 -7 -45 0 -31 4 -38 24 -43 13 -3 38 -3 56
0 29 6 31 9 28 48 l-3 41 -45 3 c-25 2 -49 0 -53 -4z"/>
<path d="M3354 1666 c-12 -48 -2 -61 48 -64 40 -3 47 0 53 18 4 12 4 32 1 46
-6 21 -12 24 -51 24 -39 0 -45 -3 -51 -24z"/>
<path d="M2058 1559 c-14 -8 -18 -23 -18 -69 l0 -60 145 0 145 0 0 59 c0 37
-5 63 -13 70 -18 14 -27 4 -27 -28 0 -48 -10 -52 -106 -49 l-89 3 -3 43 c-3
44 -7 47 -34 31z"/>
<path d="M2166 1554 c-3 -9 -6 -25 -6 -36 0 -17 3 -18 15 -8 16 13 21 60 6 60
-5 0 -12 -7 -15 -16z"/>
<path d="M2408 1559 c-14 -8 -18 -23 -18 -69 l0 -60 145 0 c113 0 147 3 151
13 3 8 1 36 -3 63 -7 44 -11 49 -36 52 -27 3 -28 2 -25 -35 l3 -38 -87 -3 -88
-3 0 30 c0 33 -9 61 -19 61 -3 0 -14 -5 -23 -11z"/>
<path d="M2944 1526 c-3 -8 -4 -31 -2 -52 l3 -39 123 -3 122 -3 0 56 0 55
-120 0 c-94 0 -122 -3 -126 -14z"/>
<path d="M3224 1526 c-3 -8 -4 -31 -2 -52 l3 -39 104 -3 c112 -3 131 4 131 45
0 57 -12 63 -126 63 -80 0 -106 -3 -110 -14z"/>
<path d="M2042 1388 c-14 -14 -16 -186 -2 -208 14 -22 261 -28 279 -7 8 10 11
48 9 118 -2 85 -6 104 -18 104 -12 0 -16 -17 -20 -75 l-5 -75 -94 -3 c-69 -2
-97 1 -103 10 -4 7 -8 43 -8 81 0 68 -10 83 -38 55z"/>
<path d="M2397 1393 c-13 -12 -8 -208 5 -221 17 -17 262 -17 276 1 10 13 15
170 6 200 -7 21 -50 23 -58 1 -9 -25 -7 -61 6 -89 17 -37 0 -45 -99 -45 l-83
0 0 64 c0 35 -3 71 -6 80 -6 16 -35 22 -47 9z"/>
<path d="M3107 1313 c-4 -3 -7 -15 -7 -25 0 -17 11 -18 138 -18 141 0 169 6
159 34 -5 14 -27 16 -145 16 -76 0 -142 -3 -145 -7z"/>
<path d="M3100 1241 c0 -27 18 -31 146 -31 117 0 154 9 154 35 0 13 -25 15
-150 15 -141 0 -150 -1 -150 -19z"/>
</g>
</svg>